<svg width="24" height="24" viewBox="0 0 24 24" fill="none" xmlns="http://www.w3.org/2000/svg">
<path fill-rule="evenodd" clip-rule="evenodd" d="M21.5411 6.81256C21.6801 6.34417 21.5411 6 20.8794 6H18.6914C18.135 6 17.8786 6.29732 17.7395 6.62517C17.7395 6.62517 16.6268 9.3652 15.0505 11.145C14.5406 11.6602 14.3087 11.8242 14.0306 11.8242C13.8915 11.8242 13.6902 11.6602 13.6902 11.1919V6.81256C13.6902 6.2505 13.5287 6 13.0651 6H9.62678C9.27911 6 9.07003 6.26087 9.07003 6.5081C9.07003 7.04093 9.85812 7.1638 9.93935 8.66264V11.9179C9.93935 12.6316 9.81177 12.761 9.5336 12.761C8.79186 12.761 6.98756 10.0087 5.91744 6.85938C5.70773 6.24726 5.49738 6 4.93819 6H2.75018C2.12504 6 2 6.29732 2 6.62517C2 7.21066 2.74178 10.1146 5.45387 13.9553C7.26191 16.5782 9.80932 18 12.1274 18C13.5182 18 13.6902 17.6842 13.6902 17.1403V15.1579C13.6902 14.5263 13.822 14.4003 14.2624 14.4003C14.5869 14.4003 15.1433 14.5642 16.4414 15.8288C17.9249 17.3276 18.1695 18 19.004 18H21.192C21.8171 18 22.1297 17.6842 21.9494 17.061C21.752 16.4399 21.0437 15.5388 20.1039 14.4705C19.5939 13.8616 18.8289 13.2059 18.5971 12.878C18.2726 12.4565 18.3653 12.2691 18.5971 11.8944C18.5971 11.8944 21.2629 8.10058 21.5411 6.81256Z" fill="black"/>
</svg>
