<svg width="24" height="24" viewBox="0 0 24 24" fill="none" xmlns="http://www.w3.org/2000/svg">
  <path d="M17.9902 0H2.0098C0.931372 0 0 0.882348 0 2.0098V17.9902C0 19.0686 0.882353 20 2.0098 20H17.9902C19.0686 20 20 19.1176 20 17.9902V2.0098C20 0.882348 19.0686 0 17.9902 0ZM10 5.98039C12.2059 5.98039 13.9706 7.79412 13.9706 9.95098C13.9706 12.1569 12.1569 13.9216 10 13.9216C7.79412 13.9216 6.02941 12.1078 6.02941 9.95098C5.98039 7.7451 7.79412 5.98039 10 5.98039ZM2.5 17.9412C2.20588 17.9412 2.0098 17.7451 2.0098 17.451V8.97059H4.11765C4.01961 9.26471 4.01961 9.65686 4.01961 9.95098C4.01961 13.2353 6.71569 15.9314 10 15.9314C13.2843 15.9314 15.9804 13.2353 15.9804 9.95098C15.9804 9.65686 15.9804 9.26471 15.8824 8.97059H17.9902V17.451C17.9902 17.7451 17.7941 17.9412 17.5 17.9412H2.5ZM17.9902 4.46078C17.9902 4.7549 17.7941 4.95098 17.5 4.95098H15.4902C15.1961 4.95098 15 4.7549 15 4.46078V2.45098C15 2.15686 15.1961 1.96078 15.4902 1.96078H17.5C17.7941 1.96078 17.9902 2.15686 17.9902 2.45098V4.46078Z"
    transform="translate(2 2)" fill="black" />
</svg>