<svg width="330" height="108" viewBox="0 0 330 108" fill="none" xmlns="http://www.w3.org/2000/svg">
  <g filter="url(#filter0_d)">
    <path d="M105.856 1.06239C106.385 1.04235 106.738 1.00227 107.091 1.00227C109.915 1.00227 112.739 1.00227 115.652 1.00227C115.652 20.4186 115.652 39.7148 115.652 59.1111C112.43 59.1111 109.231 59.1111 105.9 59.1111C105.9 56.4261 105.9 53.7811 105.9 51.036C103.959 51.036 102.149 51.036 100.208 51.036C100.208 53.6208 100.208 56.2457 100.208 58.9308C96.8545 58.9308 93.6554 58.9308 90.3682 58.9308C90.3682 39.6747 90.3682 20.4186 90.3682 1.08242C93.5892 1.08242 96.7883 1.08242 100.12 1.08242C100.12 14.9484 100.12 28.8344 100.12 42.7805C102.083 42.7805 103.914 42.7805 105.856 42.7805C105.856 28.8745 105.856 15.0486 105.856 1.06239Z"
      transform="translate(24 24)" fill="white" />
    <path d="M203.614 1.08154C203.9 1.0615 204.143 1.00139 204.408 1.00139C208.379 1.00139 212.35 0.941279 216.321 1.04147C222.389 1.18173 225.919 3.70646 227.353 9.05648C228.742 14.2863 228.522 19.5962 227.551 24.8661C227.066 27.471 225.566 29.4948 223.072 30.8974C222.962 30.9575 222.852 31.0577 222.719 31.1579C226.227 33.9832 226.977 37.7903 227.22 41.6976C227.419 44.7834 227.286 47.9093 227.419 51.0151C227.529 53.7001 227.816 56.3852 228.036 59.1904C227.86 59.1904 227.485 59.1904 227.132 59.1904C224.661 59.1904 222.212 59.1103 219.741 59.2105C218.528 59.2505 218.064 58.8097 217.998 57.8479C217.844 55.5837 217.667 53.3194 217.579 51.0552C217.402 47.2881 217.314 43.5211 217.138 39.754C217.094 38.7922 216.829 37.8304 216.542 36.9087C216.145 35.6663 215.571 35.3457 214.203 35.486C213.939 35.506 213.586 35.8467 213.52 36.1072C213.409 36.4678 213.497 36.9087 213.497 37.3094C213.497 44.1623 213.497 50.9951 213.497 57.8479C213.497 58.2487 213.497 58.6494 213.497 59.1103C210.188 59.1103 206.967 59.1103 203.658 59.1103C203.614 39.7941 203.614 20.4578 203.614 1.08154ZM213.542 9.13663C213.542 15.1679 213.542 21.2193 213.542 27.2706C215.99 27.5511 217.16 26.9701 217.689 24.8861C218.131 23.1228 218.461 21.2593 218.439 19.456C218.417 16.811 218.285 14.126 217.8 11.5011C217.38 9.29694 216.079 8.73588 213.542 9.13663Z"
      transform="translate(24 24)" fill="white" />
    <path d="M30.9979 1.08367C31.2406 1.06364 31.4612 1.02356 31.6598 1.02356C35.6751 1.02356 39.6684 1.0436 43.6837 1.0436C50.7657 1.06364 53.7883 4.97096 54.8693 9.6397C56.0165 14.5289 55.8621 19.4581 55.0017 24.3673C54.5163 27.1325 53.1264 29.3967 50.4127 30.8995C50.3024 30.9597 50.1921 31.0598 50.0597 31.1801C53.2146 33.6246 54.1413 36.9509 54.4501 40.4174C54.7149 43.403 54.5825 46.4286 54.7149 49.4142C54.8693 52.6403 55.1341 55.8463 55.3326 59.1324C52.3101 59.1324 49.089 59.1324 45.6031 59.1324C45.4046 57.85 45.0957 56.5476 45.0516 55.2451C44.853 50.3159 44.7648 45.3666 44.5662 40.4374C44.5221 39.4155 44.3015 38.3735 44.0367 37.3717C43.5514 35.5683 43.0219 35.2878 40.8377 35.5683C40.8377 43.3829 40.8377 51.1976 40.8377 59.1124C37.4842 59.1124 34.2852 59.1124 30.9538 59.1124C30.9979 39.7962 30.9979 20.46 30.9979 1.08367ZM40.8818 27.2527C43.3087 27.5733 44.4118 27.0523 45.0075 25.0085C45.4708 23.4456 45.8017 21.8025 45.7796 20.1795C45.7576 17.294 45.6252 14.3886 45.206 11.5232C44.8751 9.33914 43.2425 8.61779 40.8818 9.19888C40.8818 15.1901 40.8818 21.2014 40.8818 27.2527Z"
      transform="translate(24 24)" fill="white" />
    <path d="M0.0668396 29.8661C0.0668396 23.7948 -0.0434718 17.7234 0.133026 11.652C0.199213 9.72841 0.794895 7.76473 1.52295 5.94132C2.44957 3.637 4.39105 2.05403 6.90615 1.03212C11.6054 -0.851411 17.9814 -0.0499089 21.2687 2.89561C23.3205 4.73906 24.225 7.08346 24.6442 9.60819C24.8207 10.6702 24.8869 11.7322 24.8869 12.7942C24.909 24.3358 24.909 35.8975 24.8869 47.4391C24.8869 49.6432 24.578 51.8473 23.6073 53.8912C21.4231 58.5399 16.8562 60.2831 11.3627 59.9024C3.99393 59.4015 0.353649 54.893 0.110964 48.4009C-0.109659 42.2093 0.0668396 36.0377 0.0668396 29.8661ZM9.97281 29.9663C9.97281 36.178 9.97281 42.3696 9.99487 48.5812C9.99487 49.2825 10.0831 49.9838 10.2817 50.6451C10.5905 51.667 11.5613 52.208 12.7085 52.188C13.8116 52.1479 14.6059 51.5668 14.8486 50.5048C14.9809 49.9838 15.0251 49.4428 15.0251 48.9219C15.0251 36.2782 15.0251 23.6345 15.0251 10.9908C15.0251 10.4297 14.9368 9.84864 14.7603 9.32766C14.4073 8.30575 13.5028 7.72466 12.4879 7.7447C11.3848 7.76474 10.5023 8.3859 10.2376 9.46793C10.0611 10.1492 10.0169 10.8505 10.0169 11.5518C9.95074 17.6833 9.97281 23.8148 9.97281 29.9663Z"
      transform="translate(24 24)" fill="white" />
    <path d="M258.305 58.9327C254.973 58.9327 251.686 58.9327 248.31 58.9327C248.046 56.2677 247.803 53.6628 247.538 50.9978C245.553 50.9978 243.655 50.9978 241.625 50.9978C241.383 53.6228 241.118 56.2276 240.853 58.9127C238.118 58.9127 235.426 58.9127 232.58 58.9127C232.823 56.9891 233.065 55.0855 233.308 53.1819C234.102 47.0104 234.874 40.8588 235.669 34.6873C236.507 28.1951 237.345 21.7029 238.184 15.2108C238.735 10.8426 239.331 6.4744 239.816 2.08618C239.905 1.22456 240.213 0.964073 241.162 0.984111C243.964 1.04422 246.744 1.04422 249.546 0.984111C250.428 0.964073 250.737 1.22456 250.848 2.02606C252.083 11.7443 253.363 21.4425 254.642 31.1607C255.834 40.2377 257.047 49.3147 258.238 58.3917C258.26 58.552 258.283 58.7123 258.305 58.9327ZM244.891 21.0417C244.802 21.0417 244.736 21.0417 244.648 21.0417C243.92 28.2753 243.192 35.5289 242.464 42.7824C243.92 42.7824 245.222 42.7824 246.589 42.7824C246.016 35.4687 245.442 28.2552 244.891 21.0417Z"
      transform="translate(24 24)" fill="white" />
    <path d="M147.244 38.6617C149.781 38.9623 152.186 39.2628 154.568 39.5434C154.436 41.9078 154.259 44.132 154.215 46.3561C154.193 47.5784 154.304 48.8207 154.524 50.043C154.789 51.4857 155.649 52.2071 156.841 52.187C157.966 52.167 158.981 51.4657 159.047 50.0831C159.179 47.3981 159.312 44.673 158.915 42.028C158.363 38.2409 156.091 35.0549 153.642 32.0293C150.972 28.7431 148.501 25.3367 147.42 21.2892C146.185 16.6805 146.008 12.0318 147.288 7.40315C148.788 1.97298 153.62 -0.692017 159.996 0.169597C163.989 0.71061 166.504 2.75444 167.673 6.2009C168.975 10.008 168.71 13.9154 168.445 17.8227C168.379 18.6242 168.247 19.4056 168.137 20.3474C165.644 20.0468 163.239 19.7663 160.68 19.4657C160.768 18.0631 160.922 16.6805 160.922 15.2979C160.922 13.5747 160.79 11.8314 160.68 10.1082C160.657 9.64735 160.437 9.20653 160.26 8.7657C159.951 8.06439 159.378 7.70371 158.539 7.74379C157.657 7.78386 156.951 8.18461 156.885 8.94604C156.686 10.9899 156.422 13.0738 156.598 15.1176C156.929 18.9047 159.157 22.0105 161.474 25.0562C164.96 29.6248 167.717 34.4939 168.865 40.0042C169.725 44.0318 169.924 48.1194 168.776 52.1269C167.21 57.6172 162.798 60.3624 156.554 59.9616C151.722 59.641 148.898 57.6373 147.552 53.4093C146.03 48.5402 146.67 43.6711 147.244 38.6617Z"
      transform="translate(24 24)" fill="white" />
    <path d="M83.7703 20.6999C81.3876 20.4995 78.9607 20.2991 76.4677 20.0987C76.6 18.4156 76.8427 16.8326 76.8427 15.2296C76.8427 13.5064 76.7765 11.7631 76.5118 10.0399C76.247 8.2766 75.1439 7.55525 73.4451 7.69551C72.4082 7.77566 71.7022 8.25656 71.4816 9.17829C71.3051 9.85957 71.2168 10.5609 71.2168 11.2622C71.1948 23.6454 71.1948 36.0486 71.2168 48.4318C71.2168 49.0931 71.261 49.7743 71.4154 50.4155C71.7243 51.6779 72.4965 52.2189 73.8864 52.2991C75.0777 52.3592 75.9823 51.8783 76.247 50.6159C76.6221 48.8526 76.8427 47.0492 76.8648 45.2659C76.9089 43.5627 76.6 41.8795 76.4897 40.1764C76.4677 39.9159 76.7545 39.6353 76.953 39.3949C77.0413 39.3147 77.306 39.3749 77.4825 39.3548C79.6005 39.1945 81.7185 39.0342 83.9688 38.8539C84.1012 39.8558 84.2557 40.7775 84.3218 41.6792C84.6086 45.3861 84.8513 49.093 83.9026 52.7399C82.976 56.2865 80.8581 58.8714 76.6883 59.6128C74.1952 60.0536 71.7022 60.0536 69.2533 59.4725C64.7085 58.3704 62.3919 55.4449 61.5756 51.4374C61.3109 50.0949 61.2226 48.7123 61.2226 47.3498C61.2006 35.7681 61.1785 24.1664 61.2447 12.5847C61.2667 10.7011 61.5315 8.7575 62.1272 6.97416C63.6936 2.34549 67.6427 -0.0590125 73.1804 0.00110006C74.46 0.0211376 75.7617 0.121325 76.9972 0.361776C81.0566 1.16328 83.0863 3.78819 83.9026 7.25469C84.9175 11.6229 84.4763 16.0311 83.9026 20.3993C83.9688 20.4995 83.8806 20.5596 83.7703 20.6999Z"
      transform="translate(24 24)" fill="white" />
    <path d="M131.824 51.0383C134.824 51.0383 137.714 51.0383 140.605 51.0383C142.039 51.0383 142.039 51.0382 142.039 52.3207C142.039 54.5047 142.039 56.7089 142.039 58.9531C135.265 58.9531 128.625 58.9531 121.896 58.9531C121.896 39.697 121.896 20.4209 121.896 1.08467C128.514 1.08467 135.111 1.08467 141.818 1.08467C141.818 3.68955 141.818 6.29443 141.818 9.01954C138.487 9.01954 135.199 9.01954 131.824 9.01954C131.824 14.4096 131.824 19.6995 131.824 25.0896C134.604 25.0896 137.339 25.0896 140.23 25.0896C140.23 26.1917 140.23 27.1936 140.23 28.1754C140.23 29.578 140.207 30.9807 140.252 32.3833C140.274 33.0646 140.031 33.3251 139.237 33.305C137.185 33.265 135.111 33.285 133.059 33.285C132.662 33.285 132.265 33.285 131.802 33.285C131.824 39.2161 131.824 45.027 131.824 51.0383Z"
      transform="translate(24 24)" fill="white" />
    <path d="M198.538 1.10471C198.538 3.7697 198.538 6.31447 198.538 8.9995C195.979 8.9995 193.464 8.9995 190.75 8.9995C190.75 25.7709 190.75 42.4221 190.75 59.1334C187.353 59.1334 184.132 59.1334 180.8 59.1334C180.8 42.4822 180.8 25.831 180.8 9.05961C178.175 9.05961 175.66 9.05961 173.079 9.05961C173.079 6.35454 173.079 3.7697 173.079 1.08467C181.528 1.10471 190 1.10471 198.538 1.10471Z"
      transform="translate(24 24)" fill="white" />
    <path d="M281.25 50.8754C278.338 50.8754 275.492 50.8754 272.536 50.8754C272.536 48.1904 272.536 45.5654 272.536 42.8604C275.448 42.8604 278.294 42.8604 281.25 42.8604C281.25 45.5254 281.25 48.1503 281.25 50.8754Z"
      transform="translate(24 24)" fill="white" />
  </g>
  <defs>
    <filter id="filter0_d" x="0" y="0" width="329.25" height="108" filterUnits="userSpaceOnUse" color-interpolation-filters="sRGB">
      <feFlood flood-opacity="0" result="BackgroundImageFix" />
      <feColorMatrix in="SourceAlpha" type="matrix" values="0 0 0 0 0 0 0 0 0 0 0 0 0 0 0 0 0 0 255 0" />
      <feOffset/>
      <feGaussianBlur stdDeviation="12" />
      <feColorMatrix type="matrix" values="0 0 0 0 0 0 0 0 0 0 0 0 0 0 0 0 0 0 0.36 0" />
      <feBlend mode="normal" in2="BackgroundImageFix" result="effect1_dropShadow" />
      <feBlend mode="normal" in="SourceGraphic" in2="effect1_dropShadow" result="shape" />
    </filter>
  </defs>
</svg>